<?xml version="1.0" encoding="UTF-8" standalone="no"?>
<!-- Created with Inkscape (http://www.inkscape.org/) -->

<svg
   width="5000"
   height="5000"
   viewBox="0 0 5000 5000"
   version="1.1"
   id="SVGRoot"
   xml:space="preserve"
   xmlns:xlink="http://www.w3.org/1999/xlink"
   xmlns="http://www.w3.org/2000/svg"
   xmlns:svg="http://www.w3.org/2000/svg"><defs
     id="defs1099"><linearGradient
       id="MARCA"><stop
         style="stop-color:#1b4865;stop-opacity:1;"
         offset="0.07307693"
         id="stop4894" /><stop
         style="stop-color:#5fa8d3;stop-opacity:1;"
         offset="0.61153841"
         id="stop6696" /><stop
         style="stop-color:#05c2d9;stop-opacity:1;"
         offset="1"
         id="stop4896" /></linearGradient><linearGradient
       xlink:href="#MARCA"
       id="linearGradient13672"
       gradientUnits="userSpaceOnUse"
       gradientTransform="matrix(1.6813459,0,0,1.4556792,-9578.9519,-513.04235)"
       x1="4616.8477"
       y1="2535.1238"
       x2="7057.2651"
       y2="2535.1238" /><linearGradient
       xlink:href="#MARCA"
       id="linearGradient13674"
       gradientUnits="userSpaceOnUse"
       gradientTransform="matrix(1.3306035,0,0,1.3306035,-7959.6275,-41.473822)"
       x1="4616.8472"
       y1="3253.3445"
       x2="7700.5444"
       y2="3253.3445" /><linearGradient
       xlink:href="#MARCA"
       id="linearGradient13676"
       gradientUnits="userSpaceOnUse"
       gradientTransform="matrix(1.3306035,0,0,1.3306035,-7959.6275,-38.812607)"
       x1="4616.8472"
       y1="3691.5481"
       x2="7700.5444"
       y2="3691.5481" /></defs><g
     id="layer1"
     transform="translate(2264.8451,-1261.6903)"><path
       d="m -1814.3875,3464.973 c 2.9229,-7.9698 14.0371,-30.7128 24.6978,-50.5405 22.1615,-41.2177 16.2779,-40.7373 101.4476,-8.2835 144.2329,54.9591 388.6543,122.7346 567.4797,157.3554 204.31947,39.5558 376.63124,58.7515 601.18856,66.9716 712.29635,26.0742 1413.35033,-144.6537 2005.41464,-488.3804 165.1959,-95.905 249.8259,-154.2389 483.0369,-332.9469 l 98.1228,-75.1904 -205.9756,-8.2153 c -220.4239,-8.7908 -244.9178,-13.416 -253.9644,-47.9593 -7.3907,-28.222 -2.4726,-41.5192 21.3364,-57.6865 19.9787,-13.5657 42.5736,-13.7558 319.405,-2.685 163.848,6.5526 304.5372,15.1246 312.6431,19.0498 8.1052,3.9242 18.7341,14.3024 23.6194,23.0616 11.0368,19.7878 -14.6555,523.6291 -27.7334,543.8748 -20.0852,31.0935 -83.0873,28.1385 -107.6284,-5.0478 -5.1296,-6.9374 -4.6545,-90.4843 1.1334,-199.2282 l 9.9683,-187.2805 -139.2039,106.4818 c -194.1595,148.5187 -264.4125,197.0784 -419.835,290.1947 -516.7483,309.5926 -1109.46371,489.8307 -1740.49976,529.2677 -295.44105,18.4635 -615.2024,1.6714 -911.44514,-47.8642 -242.7684,-40.5942 -500.6728,-109.5412 -722.7749,-193.2236 -44.0614,-16.601 -45.552,-17.7703 -40.4331,-31.7253 z"
       style="fill:url(#linearGradient13672);fill-opacity:1;stroke:none;stroke-width:0.999996"
       id="path11627-0" /><text
       xml:space="preserve"
       style="font-weight:bold;font-size:1241.9px;font-family:Poppins;-inkscape-font-specification:'Poppins Bold';text-align:center;letter-spacing:-12.4278px;text-anchor:middle;fill:url(#linearGradient13674);fill-opacity:1;stroke:none;stroke-width:1.88977;stroke-linejoin:round;paint-order:stroke markers fill"
       id="text10480-0"
       x="227.08217"
       y="4723.3433"><tspan
         id="tspan10478-1"
         style="fill:url(#linearGradient13674);fill-opacity:1;stroke-width:1.88977">Gestor</tspan></text><path
       d="m -1816.4343,4873.1744 v -40.7216 H 235.15505 2286.744 v 40.7216 40.7217 H 235.15505 -1816.4343 Z"
       style="fill:url(#linearGradient13676);fill-opacity:1;stroke:none;stroke-width:1.00001"
       id="path11594-2" /></g></svg>
